<svg width="95" height="95" viewBox="0 0 95 95" fill="none" xmlns="http://www.w3.org/2000/svg">
<path d="M27.8073 46.8073L31.0729 40.0781C31.7326 38.6927 32.7064 37.6042 33.9942 36.8125C35.2819 36.0209 36.6832 35.625 38.1979 35.625H43.5417V7.91669H71.25L67.2917 15.8334L71.25 23.75H51.4583V35.625H56.5052C58.0226 35.625 59.3921 36.0209 60.6139 36.8125C61.8358 37.6042 62.8082 38.6597 63.5312 39.9792L66.9948 46.9063L55.1198 54.8229L47.5 50.9636L39.8802 54.8229L27.8073 46.8073ZM7.91666 87.0834L24.2448 53.9323L39.2864 63.9271L47.5 59.8698L55.7135 63.9271L70.5573 54.1302L87.0833 87.0834H7.91666Z" fill="url(#paint0_linear_33_4318)"/>
<defs>
<linearGradient id="paint0_linear_33_4318" x1="47.5" y1="7.91669" x2="47.5" y2="87.0834" gradientUnits="userSpaceOnUse">
<stop stop-color="#008A50"/>
<stop offset="1" stop-color="#2EB97E"/>
</linearGradient>
</defs>
</svg>
