<svg width="95" height="95" viewBox="0 0 95 95" fill="none" xmlns="http://www.w3.org/2000/svg">
<path d="M15.8333 11.875C11.4395 11.875 7.91663 15.3979 7.91663 19.7917V59.375C7.91663 61.4746 8.7507 63.4883 10.2354 64.9729C11.72 66.4576 13.7337 67.2917 15.8333 67.2917H47.5V87.0833L59.375 75.2083L71.25 87.0833V67.2917H79.1666C81.2663 67.2917 83.2799 66.4576 84.7645 64.9729C86.2492 63.4883 87.0833 61.4746 87.0833 59.375V19.7917C87.0833 17.692 86.2492 15.6784 84.7645 14.1937C83.2799 12.7091 81.2663 11.875 79.1666 11.875H15.8333ZM47.5 19.7917L59.375 27.7083L71.25 19.7917V33.6458L83.125 39.5833L71.25 45.5208V59.375L59.375 51.4583L47.5 59.375V45.5208L35.625 39.5833L47.5 33.6458V19.7917ZM15.8333 19.7917H35.625V27.7083H15.8333V19.7917ZM15.8333 35.625H27.7083V43.5417H15.8333V35.625ZM15.8333 51.4583H35.625V59.375H15.8333V51.4583Z" fill="url(#paint0_linear_33_4311)"/>
<defs>
<linearGradient id="paint0_linear_33_4311" x1="47.5" y1="11.875" x2="47.5" y2="87.0833" gradientUnits="userSpaceOnUse">
<stop stop-color="#008A50"/>
<stop offset="1" stop-color="#2EB97E"/>
</linearGradient>
</defs>
</svg>
