<svg width="95" height="95" viewBox="0 0 95 95" fill="none" xmlns="http://www.w3.org/2000/svg">
<path d="M43.1854 8.1819C45.9821 7.22436 49.0179 7.22436 51.8146 8.1819C55.7373 9.5218 62.9929 12.1462 73.5795 16.5558C81.1993 19.7323 86.6044 22.1904 90.2441 23.9341C92.6171 25.0701 93.9787 27.3086 93.9787 29.6875C93.9787 32.0665 92.6171 34.3049 90.2421 35.441C86.6044 37.1826 81.1993 39.6427 73.5795 42.8193C62.9929 47.2289 55.7373 49.8533 51.8146 51.1912C49.0179 52.1487 45.9821 52.1487 43.1854 51.1912C39.2627 49.8533 32.0071 47.2289 21.4205 42.8193C18.556 41.6276 15.7039 40.4064 12.8646 39.1559V70.7671C14.8426 71.4702 16.5089 72.8491 17.5696 74.6607C18.6303 76.4723 19.0173 78.6002 18.6624 80.6693C18.3074 82.7383 17.2334 84.6156 15.6295 85.9701C14.0257 87.3246 11.9951 88.0693 9.89583 88.0729C7.79353 88.0747 5.75837 87.3328 4.15048 85.9784C2.54258 84.6241 1.46562 82.7446 1.11018 80.6725C0.754727 78.6005 1.1437 76.4695 2.20828 74.6567C3.27285 72.8439 4.94438 71.4661 6.92708 70.7671V36.4682C6.14333 36.1027 5.42028 35.7603 4.75791 35.441C2.38291 34.3049 1.02125 32.0665 1.02125 29.6875C1.02125 27.3086 2.38291 25.0701 4.75791 23.9341C8.39562 22.1904 13.8007 19.7323 21.4225 16.5558C32.0071 12.1462 39.2627 9.5218 43.1874 8.18388" fill="url(#paint0_linear_33_4322)"/>
<path d="M41.2696 55.8086C33.6848 53.2164 26.1913 50.3648 18.8021 47.2586V47.8305C18.8021 54.0491 19.1208 58.0312 19.4533 60.4972C19.8471 63.4185 21.5492 65.9854 24.2369 67.3926C28.1299 69.4292 35.6587 72.2396 47.5 72.2396C59.3414 72.2396 66.8701 69.4292 70.7632 67.3907C73.4509 65.9854 75.1549 63.4185 75.5468 60.4972C75.8793 58.0312 76.198 54.0491 76.198 47.8305V47.2566C68.8088 50.3628 61.3152 53.2145 53.7305 55.8066C49.6916 57.1876 45.3084 57.1895 41.2696 55.8086Z" fill="url(#paint1_linear_33_4322)"/>
<defs>
<linearGradient id="paint0_linear_33_4322" x1="47.4803" y1="7.46375" x2="47.4803" y2="88.0729" gradientUnits="userSpaceOnUse">
<stop stop-color="#008A50"/>
<stop offset="1" stop-color="#2EB97E"/>
</linearGradient>
<linearGradient id="paint1_linear_33_4322" x1="47.5" y1="47.2566" x2="47.5" y2="72.2396" gradientUnits="userSpaceOnUse">
<stop stop-color="#008A50"/>
<stop offset="1" stop-color="#2EB97E"/>
</linearGradient>
</defs>
</svg>
